<?xml version="1.0" encoding="UTF-8" standalone="no"?><!DOCTYPE svg PUBLIC "-//W3C//DTD SVG 1.1//EN" "http://www.w3.org/Graphics/SVG/1.1/DTD/svg11.dtd"><svg width="100%" height="100%" viewBox="0 0 900 445" version="1.1" xmlns="http://www.w3.org/2000/svg" xmlns:xlink="http://www.w3.org/1999/xlink" xml:space="preserve" xmlns:serif="http://www.serif.com/" style="fill-rule:evenodd;clip-rule:evenodd;stroke-linejoin:round;stroke-miterlimit:2;"><rect x="886.3" y="144.684" width="13.017" height="300.067" style="fill:#906db0;fill-rule:nonzero;"/><path d="M51.767,151.446c-0,6.508 2.558,12.379 7.691,17.604c5.125,5.225 11.334,7.838 18.634,7.838c7.291,-0 13.354,-2.663 18.195,-7.988c4.83,-5.321 7.246,-11.192 7.246,-17.6c0,-6.4 -2.325,-12.371 -6.954,-17.892c-4.633,-5.516 -10.85,-8.283 -18.633,-8.283c-7.796,-0 -14.104,2.767 -18.934,8.283c-4.833,5.521 -7.245,11.534 -7.245,18.038Zm53.833,-61.521c1.183,-11.042 8.971,-16.563 23.367,-16.563c7.691,0 13.412,0.588 17.162,1.771c3.742,1.188 6.359,3.259 7.833,6.213c1.484,2.958 2.371,5.575 2.663,7.841c0.296,2.267 0.442,5.671 0.442,10.205l-0,103.525c-0,4.541 -0.146,7.941 -0.442,10.204c-0.292,2.271 -1.133,4.883 -2.513,7.842c-2.766,5.124 -9.516,7.691 -20.262,7.691c-10.75,0 -17.946,-1.337 -21.592,-3.996c-3.65,-2.662 -5.766,-6.554 -6.362,-11.683c-7.296,10.454 -19.475,15.679 -36.529,15.679c-17.059,0 -32.884,-7.787 -47.475,-23.371c-14.596,-15.575 -21.892,-33.67 -21.892,-54.279c-0,-20.6 7.346,-38.646 22.037,-54.129c14.692,-15.479 30.813,-23.221 48.367,-23.221c6.7,0 12.817,1.183 18.338,3.554c5.516,2.363 9.362,4.584 11.537,6.65c2.167,2.071 3.942,4.1 5.321,6.067Z" style="fill:#00b1b4;fill-rule:nonzero;"/><path d="M249.95,228.654c-19.921,0 -36.438,-7.546 -49.546,-22.633c-13.121,-15.083 -19.671,-33.467 -19.671,-55.163l0,-51.766c0,-4.729 0.146,-8.175 0.446,-10.35c0.296,-2.167 1.129,-4.734 2.513,-7.692c2.758,-5.325 10.45,-7.987 23.071,-7.987c13.804,-0 21.887,3.749 24.258,11.241c1.183,3.154 1.771,8.183 1.771,15.088l-0,51.762c-0,8.088 2.316,14.396 6.95,18.929c4.637,4.538 10.845,6.805 18.637,6.805c7.792,-0 14.1,-2.367 18.934,-7.101c4.833,-4.733 7.249,-10.941 7.249,-18.633l0,-52.358c0,-4.534 0.146,-7.933 0.442,-10.2c0.292,-2.267 1.229,-4.883 2.808,-7.842c2.563,-5.125 10.155,-7.691 22.78,-7.691c12.42,-0 20.008,2.662 22.77,7.987c1.384,2.958 2.226,5.575 2.517,7.838c0.296,2.27 0.442,5.675 0.442,10.204l-0,104.712c-0,4.342 -0.146,7.646 -0.442,9.913c-0.291,2.266 -1.233,4.779 -2.808,7.537c-2.959,5.134 -10.55,7.692 -22.779,7.692c-12.025,-0 -19.425,-2.363 -22.184,-7.096c-1.971,-3.354 -2.958,-7.396 -2.958,-12.129c-0.787,1.383 -2.563,3.354 -5.321,5.916c-2.767,2.563 -5.429,4.73 -7.987,6.505c-6.709,4.341 -14.005,6.512 -21.892,6.512Z" style="fill:#00b1b4;fill-rule:nonzero;"/><path d="M359.983,26.033c0,-4.537 0.146,-7.937 0.446,-10.204c0.296,-2.266 1.129,-4.883 2.513,-7.842c2.758,-5.32 10.45,-7.987 23.071,-7.987c12.024,0 19.524,2.667 22.483,7.987c1.575,2.959 2.512,5.621 2.808,7.988c0.296,2.367 0.442,5.821 0.442,10.354l-0,136.95c-0,7.1 0.596,11.592 1.779,13.463c1.179,1.875 3.792,2.808 7.837,2.808c4.038,0 6.755,0.15 8.134,0.442c1.379,0.296 3.054,1.137 5.029,2.516c3.942,2.567 5.917,9.563 5.917,21.004c-0,12.421 -1.975,20.013 -5.917,22.771c-5.133,3.55 -17.354,4.146 -36.679,1.775c-15.188,-1.971 -25.046,-6.996 -29.584,-15.083c-5.52,-9.658 -8.279,-25.042 -8.279,-46.146l0,-140.796Z" style="fill:#00b1b4;fill-rule:nonzero;"/><path d="M504.033,151.446c0,6.508 2.563,12.379 7.692,17.604c5.129,5.225 11.338,7.838 18.638,7.838c7.291,-0 13.354,-2.663 18.191,-7.988c4.829,-5.321 7.246,-11.192 7.246,-17.6c-0,-6.4 -2.321,-12.371 -6.954,-17.892c-4.634,-5.516 -10.846,-8.283 -18.629,-8.283c-7.796,-0 -14.104,2.767 -18.934,8.283c-4.833,5.521 -7.25,11.534 -7.25,18.038Zm53.834,-61.521c1.187,-11.042 8.975,-16.563 23.37,-16.563c7.688,0 13.409,0.588 17.159,1.771c3.742,1.188 6.358,3.259 7.837,6.213c1.479,2.958 2.367,5.575 2.659,7.841c0.3,2.267 0.445,5.671 0.445,10.205l0,103.525c0,4.541 -0.145,7.941 -0.445,10.204c-0.292,2.271 -1.134,4.883 -2.513,7.842c-2.762,5.124 -9.512,7.691 -20.258,7.691c-10.75,0 -17.95,-1.337 -21.596,-3.996c-3.65,-2.662 -5.767,-6.554 -6.358,-11.683c-7.296,10.454 -19.475,15.679 -36.534,15.679c-17.058,0 -32.883,-7.787 -47.475,-23.371c-14.591,-15.575 -21.887,-33.67 -21.887,-54.279c-0,-20.6 7.341,-38.646 22.037,-54.129c14.688,-15.479 30.809,-23.221 48.363,-23.221c6.7,0 12.816,1.183 18.337,3.554c5.521,2.363 9.367,4.584 11.538,6.65c2.171,2.071 3.941,4.1 5.321,6.067Z" style="fill:#00b1b4;fill-rule:nonzero;"/><path d="M148.738,315.704c6.645,3.325 9.974,9.138 9.974,17.446c0,8.312 -3.245,14.046 -9.72,17.2l-106.434,63.308c-8.475,5.484 -15.291,6.067 -20.433,1.746c-2.333,-1.996 -4.738,-4.987 -7.233,-8.975c-3.325,-5.483 -4.984,-9.471 -4.984,-11.962c0,-2.492 0.496,-4.65 1.492,-6.479c1.833,-2.825 5.4,-5.817 10.725,-8.976l77.512,-45.862l-77.27,-45.858c-2.992,-1.83 -5.234,-3.325 -6.725,-4.488c-3.659,-3.154 -5.488,-6.562 -5.488,-10.221c0,-3.325 1.413,-7.312 4.238,-11.962c5.15,-8.642 9.975,-12.958 14.462,-12.958c3.988,-0 8.471,1.579 13.454,4.733l106.43,63.308Z" style="fill:#906db0;fill-rule:nonzero;"/><path d="M310.779,308.55c-3.179,-11.225 -9.058,-20.175 -17.633,-26.85c-8.579,-6.667 -18.908,-10.008 -30.979,-10.008c-15.259,-0 -29.025,5.137 -41.313,15.412c-12.283,10.275 -18.425,25.579 -18.425,45.917c0,19.275 6.2,34.208 18.588,44.8c12.391,10.591 26.42,15.879 42.1,15.879c10.591,0 20.333,-2.7 29.233,-8.096c8.892,-5.404 16.308,-12.021 22.242,-19.862l11.12,8.579c-6.57,10.379 -15.733,18.537 -27.483,24.462c-11.754,5.934 -24.521,8.9 -38.292,8.9c-20.966,0 -38.445,-6.616 -52.424,-19.858c-13.98,-13.237 -20.971,-31.617 -20.971,-55.129c-0,-20.754 6.937,-38.496 20.812,-53.217c13.871,-14.717 32.038,-22.083 54.492,-22.083c8.9,-0 17.262,1.642 25.104,4.925c7.833,3.287 15.35,8.212 22.554,14.775l0,-16.842l14.304,0l0,48.296l-13.029,0Z" style="fill:#00b1b4;fill-rule:nonzero;"/><path d="M488.392,333.021c-0,-18.009 -5.929,-32.733 -17.796,-44.171c-11.863,-11.437 -26.9,-17.158 -45.113,-17.158c-17.795,-0 -32.679,5.721 -44.641,17.158c-11.975,11.438 -17.955,26.271 -17.955,44.483c0,18.221 6.034,32.838 18.109,43.846c12.079,11.021 27.112,16.521 45.121,16.521c17.796,0 32.616,-5.5 44.479,-16.521c11.867,-11.008 17.796,-25.625 17.796,-43.846l-0,-0.312Zm15.887,-0c0,21.6 -7.466,39.446 -22.4,53.533c-14.937,14.088 -33.737,21.129 -56.396,21.129c-22.675,0 -41.462,-7.041 -56.4,-21.129c-14.933,-14.087 -22.296,-31.821 -22.079,-53.221c0,-21.391 7.463,-39.395 22.4,-54.012c14.933,-14.617 33.621,-21.925 56.079,-21.925c22.659,-0 41.459,7.308 56.396,21.925c14.934,14.617 22.4,32.621 22.4,54.012l0,-0.312Z" style="fill:#00b1b4;fill-rule:nonzero;"/><path d="M659.646,333.971c-0,-16.734 -5.613,-31.3 -16.842,-43.688c-11.225,-12.396 -25.629,-18.591 -43.208,-18.591c-16.738,-0 -30.984,5.721 -42.738,17.158c-11.75,11.438 -17.629,25.629 -17.629,42.579c0,18.004 5.767,32.883 17.317,44.642c11.537,11.754 26.421,17.629 44.637,17.629c2.117,0 4.292,-0.158 6.513,-0.475c2.229,-0.312 4.396,-0.792 6.516,-1.429c11.438,-3.179 21.867,-9.846 31.296,-20.021c9.421,-10.163 14.138,-22.658 14.138,-37.492l-0,-0.312Zm-1.588,43.85l-0.637,-0c-7.204,9.954 -15.621,17.416 -25.263,22.4c-9.637,4.971 -20.7,7.462 -33.196,7.462c-20.549,0 -38.287,-7.041 -53.224,-21.129c-14.934,-14.087 -22.401,-31.504 -22.401,-52.271c0,-22.445 7.255,-40.87 21.771,-55.283c14.504,-14.4 32.879,-21.604 55.121,-21.604c11.229,-0 22.025,2.912 32.413,8.737c10.375,5.829 18.633,13.188 24.779,22.088l0.637,-0.325l0,-98.496l-24.466,-0l-0,-14.3l40.354,-0l-0,215.108l26.054,0l-0,14.296l-41.942,0l0,-26.683Z" style="fill:#00b1b4;fill-rule:nonzero;"/><path d="M859.179,324.437c-1.696,-15.675 -8.846,-28.383 -21.45,-38.129c-12.604,-9.737 -26.746,-14.616 -42.417,-14.616c-15.041,-0 -28.65,5.058 -40.825,15.162c-12.183,10.108 -19.12,22.634 -20.808,37.583l125.5,0Zm-125.5,14.3c1.263,17.159 7.833,30.609 19.696,40.346c11.858,9.75 26.054,14.617 42.575,14.617c10.804,0 21.179,-2.592 31.142,-7.783c9.945,-5.188 17.895,-12.334 23.825,-21.45l17.795,-0.313c-6.358,13.979 -16.204,24.625 -29.554,31.934c-13.341,7.308 -27.32,11.166 -41.933,11.595l-3.179,0c-20.763,0 -38.659,-6.833 -53.7,-20.491c-15.038,-13.667 -22.559,-31.084 -22.559,-52.267c0,-22.667 7.73,-41.254 23.201,-55.763c15.458,-14.508 34.312,-21.766 56.549,-21.766c23.934,-0 42.842,7.65 56.713,22.946c13.875,15.3 20.817,34.762 20.817,58.395l-141.388,0Z" style="fill:#00b1b4;fill-rule:nonzero;"/></svg>