<?xml version="1.0" encoding="UTF-8" standalone="no"?><!DOCTYPE svg PUBLIC "-//W3C//DTD SVG 1.1//EN" "http://www.w3.org/Graphics/SVG/1.1/DTD/svg11.dtd"><svg width="171" height="37" viewBox="0 0 1431 315" version="1.1" xmlns="http://www.w3.org/2000/svg" xmlns:xlink="http://www.w3.org/1999/xlink" xml:space="preserve" xmlns:serif="http://www.serif.com/" style="fill-rule:evenodd;clip-rule:evenodd;stroke-linejoin:round;stroke-miterlimit:2;"><path d="M51.767,187.459c-0,6.504 2.558,12.375 7.691,17.6c5.125,5.225 11.334,7.837 18.634,7.837c7.291,0 13.354,-2.662 18.195,-7.987c4.83,-5.321 7.246,-11.188 7.246,-17.596c0,-6.408 -2.325,-12.375 -6.954,-17.896c-4.633,-5.521 -10.85,-8.287 -18.633,-8.287c-7.796,-0 -14.104,2.766 -18.934,8.287c-4.833,5.521 -7.245,11.533 -7.245,18.042Zm53.833,-61.525c1.183,-11.042 8.971,-16.567 23.367,-16.567c7.691,0 13.412,0.592 17.162,1.775c3.742,1.183 6.359,3.259 7.833,6.209c1.484,2.958 2.371,5.574 2.663,7.841c0.296,2.271 0.442,5.675 0.442,10.209l-0,103.524c-0,4.542 -0.146,7.942 -0.442,10.205c-0.292,2.271 -1.133,4.883 -2.513,7.841c-2.766,5.13 -9.516,7.692 -20.262,7.692c-10.75,-0 -17.946,-1.333 -21.592,-3.996c-3.65,-2.662 -5.766,-6.55 -6.362,-11.683c-7.296,10.454 -19.475,15.679 -36.529,15.679c-17.059,-0 -32.884,-7.787 -47.475,-23.367c-14.596,-15.579 -21.892,-33.671 -21.892,-54.283c-0,-20.6 7.346,-38.646 22.037,-54.129c14.692,-15.479 30.813,-23.221 48.367,-23.221c6.7,0 12.817,1.183 18.338,3.55c5.516,2.367 9.362,4.588 11.537,6.654c2.167,2.071 3.942,4.096 5.321,6.067Z" style="fill:#00b1b4;fill-rule:nonzero;"/><path d="M249.95,264.663c-19.921,-0 -36.438,-7.546 -49.546,-22.633c-13.121,-15.084 -19.671,-33.467 -19.671,-55.163l0,-51.767c0,-4.729 0.146,-8.179 0.446,-10.349c0.296,-2.171 1.129,-4.734 2.513,-7.692c2.758,-5.325 10.45,-7.988 23.071,-7.988c13.804,0 21.887,3.75 24.258,11.238c1.183,3.158 1.771,8.187 1.771,15.092l-0,51.762c-0,8.087 2.316,14.396 6.95,18.929c4.637,4.538 10.845,6.804 18.637,6.804c7.792,0 14.1,-2.366 18.934,-7.1c4.833,-4.733 7.249,-10.941 7.249,-18.633l0,-52.358c0,-4.534 0.146,-7.934 0.442,-10.2c0.292,-2.267 1.229,-4.884 2.808,-7.842c2.563,-5.129 10.155,-7.692 22.78,-7.692c12.42,0 20.008,2.663 22.77,7.988c1.384,2.958 2.226,5.575 2.517,7.837c0.296,2.271 0.442,5.671 0.442,10.204l-0,104.713c-0,4.342 -0.146,7.646 -0.442,9.913c-0.291,2.266 -1.233,4.779 -2.808,7.541c-2.959,5.129 -10.55,7.688 -22.779,7.688c-12.025,-0 -19.425,-2.363 -22.184,-7.096c-1.971,-3.354 -2.958,-7.396 -2.958,-12.129c-0.787,1.383 -2.563,3.358 -5.321,5.916c-2.767,2.563 -5.429,4.734 -7.987,6.505c-6.709,4.341 -14.005,6.512 -21.892,6.512Z" style="fill:#00b1b4;fill-rule:nonzero;"/><path d="M359.983,62.042c0,-4.537 0.146,-7.937 0.446,-10.204c0.296,-2.267 1.129,-4.883 2.513,-7.842c2.758,-5.321 10.45,-7.987 23.071,-7.987c12.024,-0 19.524,2.666 22.483,7.987c1.575,2.959 2.512,5.621 2.808,7.988c0.296,2.362 0.442,5.816 0.442,10.35l-0,136.958c-0,7.1 0.596,11.588 1.779,13.459c1.179,1.874 3.792,2.808 7.837,2.808c4.038,-0 6.755,0.15 8.134,0.442c1.379,0.299 3.054,1.141 5.029,2.516c3.942,2.567 5.917,9.567 5.917,21.004c-0,12.421 -1.975,20.017 -5.917,22.775c-5.133,3.546 -17.354,4.142 -36.679,1.771c-15.188,-1.966 -25.046,-6.991 -29.584,-15.083c-5.52,-9.658 -8.279,-25.038 -8.279,-46.146l0,-140.796Z" style="fill:#00b1b4;fill-rule:nonzero;"/><path d="M504.033,187.459c0,6.504 2.563,12.375 7.692,17.6c5.129,5.225 11.338,7.837 18.638,7.837c7.291,0 13.354,-2.662 18.191,-7.987c4.829,-5.321 7.246,-11.188 7.246,-17.596c-0,-6.408 -2.321,-12.375 -6.954,-17.896c-4.634,-5.521 -10.846,-8.287 -18.629,-8.287c-7.796,-0 -14.104,2.766 -18.934,8.287c-4.833,5.521 -7.25,11.533 -7.25,18.042Zm53.834,-61.525c1.187,-11.042 8.975,-16.567 23.37,-16.567c7.688,0 13.409,0.592 17.159,1.775c3.742,1.183 6.358,3.259 7.837,6.209c1.479,2.958 2.367,5.574 2.659,7.841c0.3,2.271 0.445,5.675 0.445,10.209l0,103.524c0,4.542 -0.145,7.942 -0.445,10.205c-0.292,2.271 -1.134,4.883 -2.513,7.841c-2.762,5.13 -9.512,7.692 -20.258,7.692c-10.75,-0 -17.95,-1.333 -21.596,-3.996c-3.65,-2.662 -5.767,-6.55 -6.358,-11.683c-7.296,10.454 -19.475,15.679 -36.534,15.679c-17.058,-0 -32.883,-7.787 -47.475,-23.367c-14.591,-15.579 -21.887,-33.671 -21.887,-54.283c-0,-20.6 7.341,-38.646 22.037,-54.129c14.688,-15.479 30.809,-23.221 48.363,-23.221c6.7,0 12.816,1.183 18.337,3.55c5.521,2.367 9.367,4.588 11.538,6.654c2.171,2.071 3.941,4.096 5.321,6.067Z" style="fill:#00b1b4;fill-rule:nonzero;"/><rect x="1422.47" y="0" width="7.947" height="314.781" style="fill:#906db0;fill-rule:nonzero;"/><path d="M845.792,159.88c-3.18,-11.225 -9.059,-20.175 -17.634,-26.85c-8.579,-6.671 -18.908,-10.009 -30.979,-10.009c-15.254,0 -29.021,5.138 -41.308,15.409c-12.283,10.279 -18.429,25.579 -18.429,45.916c-0,19.275 6.2,34.213 18.591,44.8c12.392,10.596 26.421,15.884 42.096,15.884c10.592,-0 20.333,-2.7 29.233,-8.1c8.896,-5.4 16.309,-12.021 22.238,-19.863l11.125,8.584c-6.567,10.379 -15.733,18.533 -27.483,24.462c-11.759,5.933 -24.521,8.9 -38.288,8.9c-20.975,0 -38.446,-6.617 -52.425,-19.858c-13.979,-13.238 -20.975,-31.617 -20.975,-55.13c0,-20.754 6.938,-38.495 20.817,-53.216c13.867,-14.721 32.037,-22.088 54.487,-22.088c8.896,0 17.259,1.646 25.1,4.93c7.834,3.287 15.359,8.212 22.559,14.77l-0,-16.837l14.304,-0l-0,48.296l-13.029,-0Z" style="fill:#00b1b4;fill-rule:nonzero;"/><path d="M1023.4,184.346c0,-18.004 -5.933,-32.729 -17.796,-44.166c-11.858,-11.438 -26.9,-17.159 -45.112,-17.159c-17.792,0 -32.684,5.721 -44.646,17.159c-11.971,11.437 -17.946,26.271 -17.946,44.483c0,18.221 6.033,32.837 18.104,43.842c12.08,11.021 27.113,16.525 45.121,16.525c17.792,-0 32.621,-5.504 44.479,-16.525c11.863,-11.005 17.796,-25.621 17.796,-43.842l0,-0.317Zm15.888,0c-0,21.604 -7.467,39.45 -22.4,53.538c-14.938,14.087 -33.734,21.129 -56.396,21.129c-22.671,0 -41.467,-7.042 -56.4,-21.129c-14.938,-14.088 -22.296,-31.821 -22.083,-53.221c-0,-21.392 7.466,-39.4 22.399,-54.017c14.938,-14.616 33.63,-21.925 56.084,-21.925c22.662,0 41.458,7.309 56.396,21.925c14.933,14.617 22.4,32.625 22.4,54.017l-0,-0.317Z" style="fill:#00b1b4;fill-rule:nonzero;"/><path d="M1194.65,185.296c0,-16.729 -5.608,-31.3 -16.837,-43.687c-11.229,-12.392 -25.63,-18.588 -43.209,-18.588c-16.733,0 -30.979,5.721 -42.737,17.159c-11.754,11.437 -17.633,25.629 -17.633,42.575c-0,18.008 5.77,32.883 17.316,44.646c11.546,11.754 26.425,17.629 44.642,17.629c2.112,-0 4.287,-0.159 6.516,-0.475c2.225,-0.317 4.392,-0.796 6.513,-1.434c11.438,-3.175 21.867,-9.845 31.296,-20.016c9.421,-10.167 14.133,-22.663 14.133,-37.492l0,-0.317Zm-1.579,43.85l-0.642,0c-7.2,9.955 -15.621,17.421 -25.258,22.4c-9.642,4.975 -20.704,7.467 -33.2,7.467c-20.554,0 -38.292,-7.042 -53.225,-21.129c-14.929,-14.088 -22.396,-31.504 -22.396,-52.271c0,-22.446 7.254,-40.875 21.763,-55.283c14.508,-14.404 32.887,-21.609 55.125,-21.609c11.229,0 22.029,2.917 32.408,8.738c10.375,5.829 18.638,13.187 24.783,22.087l0.642,-0.32l0,-98.496l-24.475,-0l0,-14.3l40.358,-0l0,215.108l26.055,0l-0,14.296l-41.938,-0l0,-26.688Z" style="fill:#00b1b4;fill-rule:nonzero;"/><path d="M1394.19,175.767c-1.696,-15.675 -8.846,-28.383 -21.446,-38.129c-12.608,-9.738 -26.746,-14.617 -42.421,-14.617c-15.038,0 -28.65,5.059 -40.825,15.163c-12.183,10.108 -19.121,22.633 -20.812,37.583l125.504,0Zm-125.504,14.296c1.27,17.158 7.833,30.613 19.7,40.35c11.858,9.746 26.054,14.617 42.574,14.617c10.801,-0 21.175,-2.592 31.138,-7.784c9.954,-5.187 17.9,-12.337 23.833,-21.45l17.788,-0.312c-6.35,13.979 -16.2,24.621 -29.55,31.929c-13.342,7.308 -27.317,11.171 -41.934,11.6l-3.179,0c-20.766,0 -38.658,-6.833 -53.696,-20.496c-15.045,-13.662 -22.562,-31.079 -22.562,-52.262c-0,-22.667 7.729,-41.255 23.196,-55.763c15.462,-14.512 34.316,-21.771 56.554,-21.771c23.933,0 42.842,7.655 56.712,22.95c13.876,15.3 20.817,34.759 20.817,58.392l-141.391,0Z" style="fill:#00b1b4;fill-rule:nonzero;"/><path d="M668.825,204.861c9.425,0 15.929,1.779 19.5,5.354c3.57,3.567 5.358,10.484 5.358,20.734c-0.184,4.395 -0.413,7.65 -0.688,9.754c-0.275,2.108 -1.237,4.629 -2.887,7.554c-2.746,5.313 -9.658,7.967 -20.733,7.967c-11.084,-0 -18.405,-1.788 -21.975,-5.359c-3.571,-3.57 -5.355,-10.479 -5.355,-20.737c0,-10.621 1.921,-17.396 5.767,-20.325c4.571,-3.296 11.579,-4.942 21.013,-4.942Zm-0,-87.625c9.425,0 15.929,1.838 19.5,5.496c3.57,3.667 5.358,10.533 5.358,20.6c-0.184,4.396 -0.413,7.65 -0.688,9.75c-0.275,2.108 -1.237,4.625 -2.887,7.554c-2.746,5.317 -9.658,7.967 -20.733,7.967c-11.084,-0 -18.405,-1.784 -21.975,-5.359c-3.571,-3.566 -5.355,-10.479 -5.355,-20.733c0,-10.621 1.921,-17.396 5.767,-20.329c4.571,-3.296 11.579,-4.946 21.013,-4.946Z" style="fill:#906db0;fill-rule:nonzero;"/></svg>